{"title":"The Hunger Games Mockingjay - Part 2 2015 NEW HDTS XviD AC3-CPG","uid":12835764,"size":1985680749,"categoryP":"video","categoryS":"movies","magnet":"?xt=urn:btih:6f58d4447e667aad8e8472a33f59c6ace2f4f290&amp;dn=The+Hunger+Games+Mockingjay+-+Part+2+2015+NEW+HDTS+XviD+AC3-CPG&amp;tr=udp%3A%2F%2Ftracker.leechers-paradise.org%3A6969&amp;tr=udp%3A%2F%2Fzer0day.ch%3A1337&amp;tr=udp%3A%2F%2Fopen.demonii.com%3A1337&amp;tr=udp%3A%2F%2Ftracker.coppersurfer.tk%3A6969&amp;tr=udp%3A%2F%2Fexodus.desync.com%3A6969","seeders":18,"leechers":9,"uploader":"makintos13","files":2,"time":1448450461,"description":"screens:\r\n \nhttp://imgmak.com/KKl\r\n \nhttp://imgmak.com/KKV\r\n \nhttp://imgmak.com/KKe\r\n \nhttp://imgmak.com/KKg\r\n \nhttp://imgmak.com/KKo\r\n\r\n::::::::::::::::\r\n\r\n\r\nSource: Latin/ JzyB / Sandman aka Hive [Thanks All]\r\nSample: included\r\nEncoder: CPG\r\n\r\nFormat : AVI\r\nFormat/Info : Audio Video Interleave\r\nFile size : 1.83 GiB\r\nDuration : 2h 5mn\r\nOverall bit rate : 2 091 Kbps\r\n\r\nVideo\r\nID : 0\r\nFormat : MPEG-4 Visual\r\nFormat profile : Advanced   \r\nFormat settings, BVOP : 2\r\nFormat settings, QPel : Yes\r\nFormat settings, GMC : No warppoints\r\nFormat settings, Matrix : Default (H.263)\r\nMuxing mode : Packed bitstream\r\nCodec ID : XVID\r\nCodec ID/Hint : XviD\r\nDuration : 2h 5mn\r\nBit rate : 1 697 Kbps\r\nWidth : 720 pixels\r\nHeight : 336 pixels\r\nDisplay aspect ratio : 2.143\r\nFrame rate : 23.976 fps\r\nColor space : YUV\r\nChroma subsampling : 4:2:0\r\nBit depth : 8 bits\r\nScan type : Progressive\r\nCompression mode : Lossy\r\nBits/(Pixel*Frame) : 0.292\r\nStream size : 1.48 GiB (81%)\r\nWriting library : XviD 73\r\n\r\nAudio #1\r\nID : 1\r\nFormat : AC-3\r\nFormat/Info : Audio Coding 3\r\nMode extension : CM (complete main)\r\nFormat settings, Endianness : Big\r\nCodec ID : 2000\r\nDuration : 2h 5mn\r\nBit rate mode : Constant\r\nBit rate : 192 Kbps\r\nChannel(s) : 2 channels\r\nChannel positions : Front: L R\r\nSampling rate : 44.1 KHz\r\nCompression mode : Lossy\r\nStream size : 172 MiB (9%)\r\nAlignment : Aligned on interleaves\r\nInterleave, duration : 70 ms (1.67 video frames)\r\nInterleave, preload duratio : 208 ms\r\nTitle : Audio 1 CPG\r\n\r\nAudio #2\r\nID : 2\r\nFormat : AC-3\r\nFormat/Info : Audio Coding 3\r\nMode extension : CM (complete main)\r\nFormat settings, Endianness : Big\r\nCodec ID : 2000\r\nDuration : 2h 5mn\r\nBit rate mode : Constant\r\nBit rate : 192 Kbps\r\nChannel(s) : 2 channels\r\nChannel positions : Front: L R\r\nSampling rate : 48.0 KHz\r\nCompression mode : Lossy\r\nStream size : 172 MiB (9%)\r\nAlignment : Aligned on interleaves\r\nInterleave, duration : 64 ms (1.53 video frames)\r\nInterleave, preload duratio : 5504 ms\r\nTitle : Audio 2 HIVE\r\n\r\n\r\nGR33TZ\r\n\r\nGoes To.....\r\nRAV3N | SugarB | nextbike | NickCrysis | JzyB | Mr. A | PLAYNOW\r\nJimmySix | andyandm | OldSchool | Usman | EVE | Applebob","torrent":{"xt":"urn:btih:6f58d4447e667aad8e8472a33f59c6ace2f4f290","amp;dn":"The+Hunger+Games+Mockingjay+-+Part+2+2015+NEW+HDTS+XviD+AC3-CPG","amp;tr":["udp%3A%2F%2Ftracker.leechers-paradise.org%3A6969","udp%3A%2F%2Fzer0day.ch%3A1337","udp%3A%2F%2Fopen.demonii.com%3A1337","udp%3A%2F%2Ftracker.coppersurfer.tk%3A6969","udp%3A%2F%2Fexodus.desync.com%3A6969"],"infoHash":"6f58d4447e667aad8e8472a33f59c6ace2f4f290","infoHashBuffer":{"type":"Buffer","data":[111,88,212,68,126,102,122,173,142,132,114,163,63,89,198,172,226,244,242,144]},"announce":[],"urlList":[]}}